<svg xmlns="http://www.w3.org/2000/svg" viewBox="0 0 48 48" aria-hidden="true"><g transform="translate(24 24) scale(0.759873) translate(-20.066 -24.004)"><path fill="#055b43" d="M9.245,37.843v4.613H19.721V29.687h5.59s7,.262,10.773-4.348c0,0,4.759-4.849,1.739-13.548s-15.978-7.2-15.978-7.2L9.245,4.7Z" transform="translate(-3.868)"/><path fill="#87c540" d="M19.6,21.474V13.091h4.63a4.171,4.171,0,0,1,4.15,4.191h0a4.171,4.171,0,0,1-4.15,4.192Z" transform="translate(-3.868)"/><path fill="#93c83e" d="M37.823,11.791S41,19.19,36.271,25.076c0,0-2.526,4.125-10.079,4.611H19.721V42.468h-5.34v5.54H24.717V35.227h6.936s9.153-.292,11.636-7.946c0,0,2.171-6.585-1.076-11.444C42.213,15.837,40.433,12.775,37.823,11.791Z" transform="translate(-3.868)"/><path fill="#87c540" d="M32.013,5.923S29.271.6,21.712,0H3.868V37.843H9.245V4.7h16.58A16.224,16.224,0,0,1,32.013,5.923Z" transform="translate(-3.868)"/></g></svg>
